<svg width="18" height="18" viewBox="0 0 18 18" fill="none" xmlns="../external.html?link=http://www.w3.org/2000/svg">
<path d="M12.618 0.66658C15.443 0.66658 17.3346 2.64991 17.3346 5.59991V12.4091C17.3346 15.3499 15.443 17.3332 12.618 17.3332H5.39297C2.56797 17.3332 0.667969 15.3499 0.667969 12.4091V5.59991C0.667969 2.64991 2.56797 0.66658 5.39297 0.66658H12.618ZM12.4846 6.49991C12.2013 6.21658 11.7346 6.21658 11.4513 6.49991L8.00964 9.94158L6.5513 8.48325C6.26797 8.19991 5.8013 8.19991 5.51797 8.48325C5.23464 8.76658 5.23464 9.22491 5.51797 9.51658L7.5013 11.4916C7.64297 11.6332 7.8263 11.6999 8.00964 11.6999C8.2013 11.6999 8.38464 11.6332 8.5263 11.4916L12.4846 7.53325C12.768 7.24991 12.768 6.79158 12.4846 6.49991Z" fill="white"/>
</svg>
