<svg width="18" height="18" viewBox="0 0 18 18" fill="none" xmlns="../external.html?link=http://www.w3.org/2000/svg">
<path d="M12.618 0.666C15.443 0.666 17.3346 2.64933 17.3346 5.59933V12.4085C17.3346 15.3502 15.443 17.3327 12.618 17.3327H5.39297C2.56797 17.3327 0.667969 15.3502 0.667969 12.4085V5.59933C0.667969 2.64933 2.56797 0.666 5.39297 0.666H12.618ZM11.5096 6.47517C11.2263 6.191 10.768 6.191 10.4763 6.47517L9.0013 7.95767L7.51797 6.47517C7.2263 6.191 6.76797 6.191 6.48464 6.47517C6.2013 6.7585 6.2013 7.22517 6.48464 7.50767L7.96797 8.99183L6.48464 10.4668C6.2013 10.7585 6.2013 11.2168 6.48464 11.4993C6.6263 11.641 6.81797 11.7168 7.0013 11.7168C7.19297 11.7168 7.3763 11.641 7.51797 11.4993L9.0013 10.0252L10.4846 11.4993C10.6263 11.6502 10.8096 11.7168 10.993 11.7168C11.1846 11.7168 11.368 11.641 11.5096 11.4993C11.793 11.2168 11.793 10.7585 11.5096 10.4752L10.0263 8.99183L11.5096 7.50767C11.793 7.22517 11.793 6.7585 11.5096 6.47517Z" fill="white"/>
</svg>
